<?xml version="1.0" encoding="UTF-8" standalone="no"?>
<!DOCTYPE svg PUBLIC "-//W3C//DTD SVG 1.1//EN" "http://www.w3.org/Graphics/SVG/1.1/DTD/svg11.dtd">
<svg width="100%" height="100%" viewBox="0 0 4999 1398" version="1.1" xmlns="http://www.w3.org/2000/svg" xmlns:xlink="http://www.w3.org/1999/xlink" xml:space="preserve" xmlns:serif="http://www.serif.com/" style="fill-rule:evenodd;clip-rule:evenodd;stroke-linecap:round;stroke-linejoin:round;stroke-miterlimit:1.5;">
    <g transform="matrix(1,0,0,1,-1280.637404,-1086.891727)">
        <g transform="matrix(1,0,0,2.299799,0,0)">
            <g id="SILEX-de-baixo" serif:id="SILEX de baixo" transform="matrix(0.759994,0,0,0.330461,579.853789,255.325941)">
                <g transform="matrix(1743.722593,0,0,1743.722593,7516.849788,2042.879599)">
                </g>
                <text x="869.779px" y="2042.88px" style="font-family:'ZenDots-Regular', 'Zen Dots';font-size:1743.723px;fill:rgb(246,246,244);">SILEX</text>
            </g>
            <g transform="matrix(0.990188,0,0,0.434821,57.080885,-0)">
                <path d="M5578.54,1656.668L5735.214,1656.668L5735.214,1580.533L5612.146,1580.532" style="fill:rgb(252,125,52);stroke:rgb(252,125,52);stroke-opacity:0;stroke-width:6.7px;"/>
            </g>
            <g transform="matrix(1,0,0,0.434821,155.647935,-2.285936)">
                <path d="M5082.478,1197.778L5425.217,1661.925L5458.451,1585.787L5174.218,1197.778L5082.478,1197.778Z" style="fill:rgb(252,125,52);stroke:black;stroke-opacity:0;stroke-width:6.67px;"/>
            </g>
        </g>
        <g transform="matrix(1,0,0,2.299799,0,0)">
            <g transform="matrix(1.072133,0,0,0.466185,-92.856565,-97.956807)">
                <g transform="matrix(1.05,0,0,1,-64.03187,0)">
                    <g transform="matrix(213.333333,0,0,213.333333,1282.224705,2524.695903)">
                        <path d="M0.096,-0L0.096,-0.728L0.521,-0.728L0.521,-0.665L0.166,-0.665L0.166,-0.397L0.498,-0.397L0.498,-0.335L0.166,-0.335L0.166,-0.062L0.528,-0.062L0.528,-0L0.096,-0Z" style="fill:rgb(183,183,184);fill-rule:nonzero;"/>
                    </g>
                    <g transform="matrix(213.333333,0,0,213.333333,1426.245142,2524.695903)">
                        <path d="M0.096,-0L0.096,-0.728L0.195,-0.728L0.398,-0.229C0.402,-0.218 0.407,-0.205 0.412,-0.191C0.418,-0.176 0.423,-0.161 0.428,-0.144C0.434,-0.128 0.439,-0.111 0.445,-0.095C0.45,-0.079 0.455,-0.063 0.459,-0.049L0.442,-0.049C0.446,-0.063 0.451,-0.078 0.457,-0.094C0.462,-0.11 0.467,-0.126 0.473,-0.143C0.479,-0.159 0.484,-0.175 0.489,-0.19C0.495,-0.205 0.499,-0.217 0.504,-0.229L0.705,-0.728L0.804,-0.728L0.804,-0L0.736,-0L0.736,-0.462C0.736,-0.476 0.736,-0.492 0.736,-0.509C0.736,-0.527 0.736,-0.544 0.737,-0.563C0.737,-0.582 0.737,-0.601 0.738,-0.62C0.738,-0.639 0.738,-0.657 0.738,-0.675L0.746,-0.675C0.74,-0.656 0.733,-0.636 0.726,-0.616C0.719,-0.596 0.712,-0.576 0.705,-0.557C0.699,-0.539 0.692,-0.521 0.686,-0.505C0.68,-0.488 0.674,-0.474 0.669,-0.462L0.481,-0L0.419,-0L0.229,-0.462C0.224,-0.474 0.219,-0.488 0.213,-0.504C0.207,-0.52 0.2,-0.537 0.194,-0.556C0.187,-0.574 0.18,-0.594 0.173,-0.614C0.166,-0.634 0.159,-0.655 0.152,-0.675L0.16,-0.675C0.16,-0.659 0.16,-0.641 0.161,-0.623C0.161,-0.604 0.161,-0.585 0.162,-0.566C0.162,-0.547 0.162,-0.529 0.162,-0.511C0.163,-0.493 0.163,-0.477 0.163,-0.462L0.163,-0L0.096,-0Z" style="fill:rgb(183,183,184);fill-rule:nonzero;"/>
                    </g>
                    <g transform="matrix(213.333333,0,0,213.333333,1635.369745,2524.695903)">
                        <path d="M0.096,-0L0.096,-0.728L0.334,-0.728C0.385,-0.728 0.428,-0.718 0.463,-0.698C0.498,-0.678 0.524,-0.651 0.542,-0.617C0.559,-0.583 0.568,-0.545 0.568,-0.502C0.568,-0.46 0.559,-0.421 0.542,-0.387C0.524,-0.353 0.498,-0.326 0.463,-0.306C0.428,-0.286 0.385,-0.276 0.334,-0.276L0.149,-0.276L0.149,-0.338L0.331,-0.338C0.369,-0.338 0.4,-0.345 0.425,-0.359C0.45,-0.374 0.468,-0.393 0.481,-0.418C0.493,-0.443 0.499,-0.471 0.499,-0.502C0.499,-0.534 0.493,-0.562 0.481,-0.586C0.468,-0.611 0.45,-0.63 0.425,-0.645C0.4,-0.659 0.368,-0.666 0.33,-0.666L0.166,-0.666L0.166,-0L0.096,-0Z" style="fill:rgb(183,183,184);fill-rule:nonzero;"/>
                    </g>
                    <g transform="matrix(213.333333,0,0,213.333333,1786.369348,2524.695903)">
                        <path d="M0.096,-0L0.096,-0.728L0.334,-0.728C0.385,-0.728 0.428,-0.718 0.463,-0.7C0.498,-0.681 0.524,-0.655 0.542,-0.622C0.559,-0.589 0.568,-0.551 0.568,-0.508C0.568,-0.466 0.559,-0.428 0.542,-0.396C0.524,-0.364 0.498,-0.338 0.463,-0.32C0.428,-0.302 0.385,-0.293 0.334,-0.293L0.135,-0.293L0.135,-0.355L0.331,-0.355C0.369,-0.355 0.4,-0.361 0.425,-0.374C0.45,-0.387 0.468,-0.404 0.481,-0.427C0.493,-0.45 0.499,-0.477 0.499,-0.508C0.499,-0.54 0.493,-0.568 0.481,-0.591C0.468,-0.615 0.449,-0.633 0.425,-0.646C0.4,-0.659 0.368,-0.666 0.33,-0.666L0.166,-0.666L0.166,-0L0.096,-0ZM0.519,-0L0.342,-0.329L0.42,-0.329L0.599,-0L0.519,-0Z" style="fill:rgb(183,183,184);fill-rule:nonzero;"/>
                    </g>
                    <g transform="matrix(213.333333,0,0,213.333333,1938.723118,2524.695903)">
                        <path d="M0.096,-0L0.096,-0.728L0.521,-0.728L0.521,-0.665L0.166,-0.665L0.166,-0.397L0.498,-0.397L0.498,-0.335L0.166,-0.335L0.166,-0.062L0.528,-0.062L0.528,-0L0.096,-0Z" style="fill:rgb(183,183,184);fill-rule:nonzero;"/>
                    </g>
                    <g transform="matrix(213.333333,0,0,213.333333,2082.743555,2524.695903)">
                        <path d="M0.096,-0L0.096,-0.728L0.521,-0.728L0.521,-0.665L0.166,-0.665L0.166,-0.397L0.498,-0.397L0.498,-0.335L0.166,-0.335L0.166,-0.062L0.528,-0.062L0.528,-0L0.096,-0Z" style="fill:rgb(183,183,184);fill-rule:nonzero;"/>
                    </g>
                    <g transform="matrix(213.333333,0,0,213.333333,2226.763991,2524.695903)">
                        <path d="M0.096,-0L0.096,-0.728L0.176,-0.728L0.508,-0.233C0.517,-0.22 0.527,-0.204 0.539,-0.185C0.55,-0.167 0.562,-0.147 0.575,-0.126C0.587,-0.104 0.6,-0.082 0.612,-0.058L0.601,-0.058C0.599,-0.083 0.597,-0.106 0.596,-0.129C0.595,-0.151 0.595,-0.173 0.594,-0.193C0.594,-0.213 0.594,-0.23 0.594,-0.246L0.594,-0.728L0.663,-0.728L0.663,-0L0.582,-0L0.273,-0.46C0.261,-0.478 0.249,-0.497 0.237,-0.516C0.224,-0.535 0.211,-0.557 0.197,-0.581C0.182,-0.606 0.165,-0.634 0.146,-0.667L0.16,-0.667C0.161,-0.637 0.162,-0.61 0.163,-0.583C0.164,-0.557 0.164,-0.534 0.165,-0.513C0.166,-0.492 0.166,-0.475 0.166,-0.46L0.166,-0L0.096,-0Z" style="fill:rgb(183,183,184);fill-rule:nonzero;"/>
                    </g>
                    <g transform="matrix(213.333333,0,0,213.333333,2405.784428,2524.695903)">
                        <path d="M0.311,-0L0.134,-0L0.134,-0.062L0.307,-0.062C0.369,-0.062 0.421,-0.074 0.463,-0.098C0.504,-0.123 0.536,-0.157 0.556,-0.203C0.577,-0.248 0.588,-0.302 0.588,-0.366C0.588,-0.428 0.578,-0.482 0.557,-0.526C0.537,-0.571 0.507,-0.605 0.467,-0.629C0.427,-0.653 0.378,-0.665 0.319,-0.665L0.132,-0.665L0.132,-0.728L0.324,-0.728C0.393,-0.728 0.453,-0.713 0.502,-0.684C0.551,-0.655 0.589,-0.614 0.616,-0.56C0.642,-0.506 0.655,-0.441 0.655,-0.366C0.655,-0.289 0.642,-0.224 0.615,-0.169C0.588,-0.115 0.549,-0.073 0.498,-0.044C0.446,-0.015 0.384,-0 0.311,-0ZM0.166,-0.728L0.166,-0L0.096,-0L0.096,-0.728L0.166,-0.728Z" style="fill:rgb(183,183,184);fill-rule:nonzero;"/>
                    </g>
                    <g transform="matrix(213.333333,0,0,213.333333,2576.263197,2524.695903)">
                        <rect x="0.096" y="-0.728" width="0.069" height="0.728" style="fill:rgb(183,183,184);fill-rule:nonzero;"/>
                    </g>
                    <g transform="matrix(213.333333,0,0,213.333333,2649.241967,2524.695903)">
                        <path d="M0.096,-0L0.096,-0.728L0.195,-0.728L0.398,-0.229C0.402,-0.218 0.407,-0.205 0.412,-0.191C0.418,-0.176 0.423,-0.161 0.428,-0.144C0.434,-0.128 0.439,-0.111 0.445,-0.095C0.45,-0.079 0.455,-0.063 0.459,-0.049L0.442,-0.049C0.446,-0.063 0.451,-0.078 0.457,-0.094C0.462,-0.11 0.467,-0.126 0.473,-0.143C0.479,-0.159 0.484,-0.175 0.489,-0.19C0.495,-0.205 0.499,-0.217 0.504,-0.229L0.705,-0.728L0.804,-0.728L0.804,-0L0.736,-0L0.736,-0.462C0.736,-0.476 0.736,-0.492 0.736,-0.509C0.736,-0.527 0.736,-0.544 0.737,-0.563C0.737,-0.582 0.737,-0.601 0.738,-0.62C0.738,-0.639 0.738,-0.657 0.738,-0.675L0.746,-0.675C0.74,-0.656 0.733,-0.636 0.726,-0.616C0.719,-0.596 0.712,-0.576 0.705,-0.557C0.699,-0.539 0.692,-0.521 0.686,-0.505C0.68,-0.488 0.674,-0.474 0.669,-0.462L0.481,-0L0.419,-0L0.229,-0.462C0.224,-0.474 0.219,-0.488 0.213,-0.504C0.207,-0.52 0.2,-0.537 0.194,-0.556C0.187,-0.574 0.18,-0.594 0.173,-0.614C0.166,-0.634 0.159,-0.655 0.152,-0.675L0.16,-0.675C0.16,-0.659 0.16,-0.641 0.161,-0.623C0.161,-0.604 0.161,-0.585 0.162,-0.566C0.162,-0.547 0.162,-0.529 0.162,-0.511C0.163,-0.493 0.163,-0.477 0.163,-0.462L0.163,-0L0.096,-0Z" style="fill:rgb(183,183,184);fill-rule:nonzero;"/>
                    </g>
                    <g transform="matrix(213.333333,0,0,213.333333,2858.36657,2524.695903)">
                        <path d="M0.096,-0L0.096,-0.728L0.521,-0.728L0.521,-0.665L0.166,-0.665L0.166,-0.397L0.498,-0.397L0.498,-0.335L0.166,-0.335L0.166,-0.062L0.528,-0.062L0.528,-0L0.096,-0Z" style="fill:rgb(183,183,184);fill-rule:nonzero;"/>
                    </g>
                    <g transform="matrix(213.333333,0,0,213.333333,3002.387007,2524.695903)">
                        <path d="M0.096,-0L0.096,-0.728L0.176,-0.728L0.508,-0.233C0.517,-0.22 0.527,-0.204 0.539,-0.185C0.55,-0.167 0.562,-0.147 0.575,-0.126C0.587,-0.104 0.6,-0.082 0.612,-0.058L0.601,-0.058C0.599,-0.083 0.597,-0.106 0.596,-0.129C0.595,-0.151 0.595,-0.173 0.594,-0.193C0.594,-0.213 0.594,-0.23 0.594,-0.246L0.594,-0.728L0.663,-0.728L0.663,-0L0.582,-0L0.273,-0.46C0.261,-0.478 0.249,-0.497 0.237,-0.516C0.224,-0.535 0.211,-0.557 0.197,-0.581C0.182,-0.606 0.165,-0.634 0.146,-0.667L0.16,-0.667C0.161,-0.637 0.162,-0.61 0.163,-0.583C0.164,-0.557 0.164,-0.534 0.165,-0.513C0.166,-0.492 0.166,-0.475 0.166,-0.46L0.166,-0L0.096,-0Z" style="fill:rgb(183,183,184);fill-rule:nonzero;"/>
                    </g>
                    <g transform="matrix(213.333333,0,0,213.333333,3181.407443,2524.695903)">
                        <path d="M0.053,-0.665L0.053,-0.728L0.583,-0.728L0.583,-0.665L0.353,-0.665L0.353,-0L0.284,-0L0.284,-0.665L0.053,-0.665Z" style="fill:rgb(183,183,184);fill-rule:nonzero;"/>
                    </g>
                    <g transform="matrix(213.333333,0,0,213.333333,3328.022126,2524.695903)">
                        <path d="M0.38,0.01C0.318,0.01 0.264,-0.006 0.216,-0.036C0.169,-0.067 0.131,-0.11 0.104,-0.166C0.077,-0.222 0.064,-0.288 0.064,-0.363C0.064,-0.439 0.077,-0.506 0.104,-0.561C0.132,-0.617 0.169,-0.661 0.216,-0.691C0.264,-0.722 0.318,-0.737 0.38,-0.737C0.441,-0.737 0.496,-0.722 0.543,-0.691C0.59,-0.661 0.628,-0.617 0.655,-0.561C0.682,-0.506 0.695,-0.439 0.695,-0.363C0.695,-0.287 0.682,-0.222 0.655,-0.166C0.628,-0.11 0.59,-0.066 0.543,-0.036C0.496,-0.005 0.441,0.01 0.38,0.01ZM0.38,-0.055C0.427,-0.055 0.469,-0.067 0.507,-0.092C0.544,-0.116 0.573,-0.151 0.595,-0.198C0.616,-0.244 0.627,-0.299 0.627,-0.363C0.627,-0.428 0.616,-0.484 0.595,-0.53C0.573,-0.576 0.544,-0.611 0.507,-0.636C0.469,-0.66 0.427,-0.673 0.38,-0.673C0.332,-0.673 0.29,-0.66 0.253,-0.636C0.215,-0.611 0.186,-0.576 0.164,-0.53C0.142,-0.484 0.132,-0.428 0.132,-0.363C0.132,-0.299 0.142,-0.244 0.164,-0.198C0.185,-0.152 0.215,-0.117 0.252,-0.092C0.29,-0.067 0.332,-0.055 0.38,-0.055Z" style="fill:rgb(183,183,184);fill-rule:nonzero;"/>
                    </g>
                    <g transform="matrix(213.333333,0,0,213.333333,3506.938396,2524.695903)">
                        <path d="M0.315,0.012C0.265,0.012 0.222,0.004 0.185,-0.012C0.149,-0.029 0.12,-0.052 0.099,-0.081C0.078,-0.111 0.066,-0.145 0.063,-0.184L0.134,-0.184C0.137,-0.155 0.146,-0.131 0.163,-0.111C0.179,-0.091 0.201,-0.076 0.227,-0.066C0.254,-0.056 0.283,-0.051 0.315,-0.051C0.351,-0.051 0.383,-0.057 0.411,-0.069C0.439,-0.081 0.461,-0.098 0.477,-0.119C0.493,-0.141 0.501,-0.166 0.501,-0.195C0.501,-0.219 0.494,-0.239 0.482,-0.256C0.469,-0.272 0.452,-0.286 0.429,-0.297C0.406,-0.309 0.38,-0.319 0.349,-0.327L0.263,-0.353C0.205,-0.37 0.161,-0.393 0.129,-0.424C0.098,-0.454 0.083,-0.493 0.083,-0.539C0.083,-0.578 0.093,-0.613 0.114,-0.643C0.135,-0.673 0.164,-0.696 0.2,-0.713C0.236,-0.729 0.276,-0.738 0.321,-0.738C0.367,-0.738 0.407,-0.729 0.442,-0.712C0.477,-0.696 0.505,-0.673 0.526,-0.644C0.546,-0.615 0.557,-0.582 0.559,-0.545L0.491,-0.545C0.487,-0.585 0.469,-0.617 0.438,-0.64C0.406,-0.664 0.367,-0.675 0.319,-0.675C0.286,-0.675 0.257,-0.67 0.231,-0.658C0.206,-0.647 0.186,-0.631 0.172,-0.611C0.158,-0.59 0.15,-0.567 0.15,-0.542C0.15,-0.517 0.157,-0.496 0.172,-0.479C0.186,-0.462 0.204,-0.448 0.226,-0.437C0.248,-0.427 0.271,-0.418 0.294,-0.411L0.37,-0.389C0.394,-0.383 0.417,-0.374 0.44,-0.364C0.464,-0.354 0.485,-0.341 0.504,-0.326C0.524,-0.311 0.539,-0.293 0.551,-0.271C0.563,-0.25 0.568,-0.224 0.568,-0.194C0.568,-0.155 0.558,-0.12 0.538,-0.088C0.518,-0.057 0.489,-0.033 0.451,-0.015C0.413,0.003 0.368,0.012 0.315,0.012Z" style="fill:rgb(183,183,184);fill-rule:nonzero;"/>
                    </g>
                    <g transform="matrix(213.333333,0,0,213.333333,3657.184031,2524.695903)">
                    </g>
                    <g transform="matrix(213.333333,0,0,213.333333,3732.637999,2524.695903)">
                        <path d="M0.311,-0L0.134,-0L0.134,-0.062L0.307,-0.062C0.369,-0.062 0.421,-0.074 0.463,-0.098C0.504,-0.123 0.536,-0.157 0.556,-0.203C0.577,-0.248 0.588,-0.302 0.588,-0.366C0.588,-0.428 0.578,-0.482 0.557,-0.526C0.537,-0.571 0.507,-0.605 0.467,-0.629C0.427,-0.653 0.378,-0.665 0.319,-0.665L0.132,-0.665L0.132,-0.728L0.324,-0.728C0.393,-0.728 0.453,-0.713 0.502,-0.684C0.551,-0.655 0.589,-0.614 0.616,-0.56C0.642,-0.506 0.655,-0.441 0.655,-0.366C0.655,-0.289 0.642,-0.224 0.615,-0.169C0.588,-0.115 0.549,-0.073 0.498,-0.044C0.446,-0.015 0.384,-0 0.311,-0ZM0.166,-0.728L0.166,-0L0.096,-0L0.096,-0.728L0.166,-0.728Z" style="fill:rgb(183,183,184);fill-rule:nonzero;"/>
                    </g>
                    <g transform="matrix(213.333333,0,0,213.333333,3903.116769,2524.695903)">
                        <path d="M0.096,-0L0.096,-0.728L0.521,-0.728L0.521,-0.665L0.166,-0.665L0.166,-0.397L0.498,-0.397L0.498,-0.335L0.166,-0.335L0.166,-0.062L0.528,-0.062L0.528,-0L0.096,-0Z" style="fill:rgb(183,183,184);fill-rule:nonzero;"/>
                    </g>
                    <g transform="matrix(213.333333,0,0,213.333333,4045.549904,2524.695903)">
                    </g>
                    <g transform="matrix(213.333333,0,0,213.333333,4121.003872,2524.695903)">
                        <path d="M0.028,-0L0.294,-0.728L0.376,-0.728L0.646,-0L0.572,-0L0.399,-0.476C0.39,-0.502 0.379,-0.533 0.368,-0.568C0.356,-0.603 0.343,-0.646 0.328,-0.696L0.342,-0.696C0.327,-0.646 0.314,-0.603 0.302,-0.567C0.291,-0.531 0.28,-0.501 0.271,-0.476L0.101,-0L0.028,-0ZM0.152,-0.216L0.152,-0.278L0.521,-0.278L0.521,-0.216L0.152,-0.216Z" style="fill:rgb(183,183,184);fill-rule:nonzero;"/>
                    </g>
                    <g transform="matrix(213.333333,0,0,213.333333,4281.690975,2524.695903)">
                        <path d="M0.096,-0L0.096,-0.728L0.166,-0.728L0.166,-0.062L0.512,-0.062L0.512,-0L0.096,-0Z" style="fill:rgb(183,183,184);fill-rule:nonzero;"/>
                    </g>
                    <g transform="matrix(213.333333,0,0,213.333333,4399.605261,2524.695903)">
                        <path d="M0.053,-0.665L0.053,-0.728L0.583,-0.728L0.583,-0.665L0.353,-0.665L0.353,-0L0.284,-0L0.284,-0.665L0.053,-0.665Z" style="fill:rgb(183,183,184);fill-rule:nonzero;"/>
                    </g>
                    <g transform="matrix(213.333333,0,0,213.333333,4546.219943,2524.695903)">
                        <path d="M0.38,0.01C0.318,0.01 0.264,-0.006 0.216,-0.036C0.169,-0.067 0.131,-0.11 0.104,-0.166C0.077,-0.222 0.064,-0.288 0.064,-0.363C0.064,-0.439 0.077,-0.506 0.104,-0.561C0.132,-0.617 0.169,-0.661 0.216,-0.691C0.264,-0.722 0.318,-0.737 0.38,-0.737C0.441,-0.737 0.496,-0.722 0.543,-0.691C0.59,-0.661 0.628,-0.617 0.655,-0.561C0.682,-0.506 0.695,-0.439 0.695,-0.363C0.695,-0.287 0.682,-0.222 0.655,-0.166C0.628,-0.11 0.59,-0.066 0.543,-0.036C0.496,-0.005 0.441,0.01 0.38,0.01ZM0.38,-0.055C0.427,-0.055 0.469,-0.067 0.507,-0.092C0.544,-0.116 0.573,-0.151 0.595,-0.198C0.616,-0.244 0.627,-0.299 0.627,-0.363C0.627,-0.428 0.616,-0.484 0.595,-0.53C0.573,-0.576 0.544,-0.611 0.507,-0.636C0.469,-0.66 0.427,-0.673 0.38,-0.673C0.332,-0.673 0.29,-0.66 0.253,-0.636C0.215,-0.611 0.186,-0.576 0.164,-0.53C0.142,-0.484 0.132,-0.428 0.132,-0.363C0.132,-0.299 0.142,-0.244 0.164,-0.198C0.185,-0.152 0.215,-0.117 0.252,-0.092C0.29,-0.067 0.332,-0.055 0.38,-0.055Z" style="fill:rgb(183,183,184);fill-rule:nonzero;"/>
                    </g>
                    <g transform="matrix(213.333333,0,0,213.333333,4723.548912,2524.695903)">
                    </g>
                    <g transform="matrix(213.333333,0,0,213.333333,4799.00288,2524.695903)">
                        <path d="M0.096,-0L0.096,-0.728L0.334,-0.728C0.385,-0.728 0.428,-0.718 0.463,-0.698C0.498,-0.678 0.524,-0.651 0.542,-0.617C0.559,-0.583 0.568,-0.545 0.568,-0.502C0.568,-0.46 0.559,-0.421 0.542,-0.387C0.524,-0.353 0.498,-0.326 0.463,-0.306C0.428,-0.286 0.385,-0.276 0.334,-0.276L0.149,-0.276L0.149,-0.338L0.331,-0.338C0.369,-0.338 0.4,-0.345 0.425,-0.359C0.45,-0.374 0.468,-0.393 0.481,-0.418C0.493,-0.443 0.499,-0.471 0.499,-0.502C0.499,-0.534 0.493,-0.562 0.481,-0.586C0.468,-0.611 0.45,-0.63 0.425,-0.645C0.4,-0.659 0.368,-0.666 0.33,-0.666L0.166,-0.666L0.166,-0L0.096,-0Z" style="fill:rgb(183,183,184);fill-rule:nonzero;"/>
                    </g>
                    <g transform="matrix(213.333333,0,0,213.333333,4935.022324,2524.695903)">
                        <path d="M0.028,-0L0.294,-0.728L0.376,-0.728L0.646,-0L0.572,-0L0.399,-0.476C0.39,-0.502 0.379,-0.533 0.368,-0.568C0.356,-0.603 0.343,-0.646 0.328,-0.696L0.342,-0.696C0.327,-0.646 0.314,-0.603 0.302,-0.567C0.291,-0.531 0.28,-0.501 0.271,-0.476L0.101,-0L0.028,-0ZM0.152,-0.216L0.152,-0.278L0.521,-0.278L0.521,-0.216L0.152,-0.216Z" style="fill:rgb(183,183,184);fill-rule:nonzero;"/>
                    </g>
                    <g transform="matrix(213.333333,0,0,213.333333,5095.709428,2524.695903)">
                        <path d="M0.311,-0L0.134,-0L0.134,-0.062L0.307,-0.062C0.369,-0.062 0.421,-0.074 0.463,-0.098C0.504,-0.123 0.536,-0.157 0.556,-0.203C0.577,-0.248 0.588,-0.302 0.588,-0.366C0.588,-0.428 0.578,-0.482 0.557,-0.526C0.537,-0.571 0.507,-0.605 0.467,-0.629C0.427,-0.653 0.378,-0.665 0.319,-0.665L0.132,-0.665L0.132,-0.728L0.324,-0.728C0.393,-0.728 0.453,-0.713 0.502,-0.684C0.551,-0.655 0.589,-0.614 0.616,-0.56C0.642,-0.506 0.655,-0.441 0.655,-0.366C0.655,-0.289 0.642,-0.224 0.615,-0.169C0.588,-0.115 0.549,-0.073 0.498,-0.044C0.446,-0.015 0.384,-0 0.311,-0ZM0.166,-0.728L0.166,-0L0.096,-0L0.096,-0.728L0.166,-0.728Z" style="fill:rgb(183,183,184);fill-rule:nonzero;"/>
                    </g>
                    <g transform="matrix(213.333333,0,0,213.333333,5266.188197,2524.695903)">
                        <path d="M0.096,-0L0.096,-0.728L0.334,-0.728C0.385,-0.728 0.428,-0.718 0.463,-0.7C0.498,-0.681 0.524,-0.655 0.542,-0.622C0.559,-0.589 0.568,-0.551 0.568,-0.508C0.568,-0.466 0.559,-0.428 0.542,-0.396C0.524,-0.364 0.498,-0.338 0.463,-0.32C0.428,-0.302 0.385,-0.293 0.334,-0.293L0.135,-0.293L0.135,-0.355L0.331,-0.355C0.369,-0.355 0.4,-0.361 0.425,-0.374C0.45,-0.387 0.468,-0.404 0.481,-0.427C0.493,-0.45 0.499,-0.477 0.499,-0.508C0.499,-0.54 0.493,-0.568 0.481,-0.591C0.468,-0.615 0.449,-0.633 0.425,-0.646C0.4,-0.659 0.368,-0.666 0.33,-0.666L0.166,-0.666L0.166,-0L0.096,-0ZM0.519,-0L0.342,-0.329L0.42,-0.329L0.599,-0L0.519,-0Z" style="fill:rgb(183,183,184);fill-rule:nonzero;"/>
                    </g>
                    <g transform="matrix(213.333333,0,0,213.333333,5418.541967,2524.695903)">
                        <path d="M0.028,-0L0.294,-0.728L0.376,-0.728L0.646,-0L0.572,-0L0.399,-0.476C0.39,-0.502 0.379,-0.533 0.368,-0.568C0.356,-0.603 0.343,-0.646 0.328,-0.696L0.342,-0.696C0.327,-0.646 0.314,-0.603 0.302,-0.567C0.291,-0.531 0.28,-0.501 0.271,-0.476L0.101,-0L0.028,-0ZM0.152,-0.216L0.152,-0.278L0.521,-0.278L0.521,-0.216L0.152,-0.216ZM0.4,-0.827C0.387,-0.827 0.375,-0.829 0.364,-0.834C0.353,-0.838 0.343,-0.844 0.333,-0.85C0.324,-0.856 0.315,-0.861 0.306,-0.866C0.297,-0.871 0.289,-0.873 0.281,-0.873C0.27,-0.873 0.261,-0.869 0.255,-0.86C0.249,-0.851 0.246,-0.841 0.245,-0.829L0.196,-0.829C0.198,-0.856 0.205,-0.878 0.218,-0.896C0.231,-0.914 0.25,-0.923 0.274,-0.923C0.288,-0.923 0.3,-0.92 0.31,-0.915C0.321,-0.911 0.331,-0.905 0.34,-0.899C0.349,-0.893 0.358,-0.888 0.367,-0.883C0.375,-0.878 0.384,-0.876 0.392,-0.876C0.403,-0.876 0.41,-0.879 0.416,-0.886C0.422,-0.893 0.426,-0.904 0.429,-0.919L0.476,-0.919C0.474,-0.891 0.467,-0.869 0.453,-0.852C0.44,-0.835 0.422,-0.827 0.4,-0.827Z" style="fill:rgb(183,183,184);fill-rule:nonzero;"/>
                    </g>
                    <g transform="matrix(213.333333,0,0,213.333333,5573.276689,2524.695903)">
                        <path d="M0.38,0.01C0.318,0.01 0.264,-0.006 0.216,-0.036C0.169,-0.067 0.131,-0.11 0.104,-0.166C0.077,-0.222 0.064,-0.288 0.064,-0.363C0.064,-0.439 0.077,-0.506 0.104,-0.561C0.132,-0.617 0.169,-0.661 0.216,-0.691C0.264,-0.722 0.318,-0.737 0.38,-0.737C0.441,-0.737 0.496,-0.722 0.543,-0.691C0.59,-0.661 0.628,-0.617 0.655,-0.561C0.682,-0.506 0.695,-0.439 0.695,-0.363C0.695,-0.287 0.682,-0.222 0.655,-0.166C0.628,-0.11 0.59,-0.066 0.543,-0.036C0.496,-0.005 0.441,0.01 0.38,0.01ZM0.38,-0.055C0.427,-0.055 0.469,-0.067 0.507,-0.092C0.544,-0.116 0.573,-0.151 0.595,-0.198C0.616,-0.244 0.627,-0.299 0.627,-0.363C0.627,-0.428 0.616,-0.484 0.595,-0.53C0.573,-0.576 0.544,-0.611 0.507,-0.636C0.469,-0.66 0.427,-0.673 0.38,-0.673C0.332,-0.673 0.29,-0.66 0.253,-0.636C0.215,-0.611 0.186,-0.576 0.164,-0.53C0.142,-0.484 0.132,-0.428 0.132,-0.363C0.132,-0.299 0.142,-0.244 0.164,-0.198C0.185,-0.152 0.215,-0.117 0.252,-0.092C0.29,-0.067 0.332,-0.055 0.38,-0.055Z" style="fill:rgb(183,183,184);fill-rule:nonzero;"/>
                    </g>
                    <g transform="matrix(213.333333,0,0,213.333333,5736.738991,2524.695903)">
                    </g>
                </g>
            </g>
        </g>
        <g transform="matrix(1,0,0,2.299799,0,0)">
            <g id="acento" transform="matrix(0.449418,0.512013,-1.347773,0.223669,2592.784389,-950.553622)">
                <path d="M2468.907,712.06L2485.577,874.556L2408.689,848.918L2468.907,712.06Z" style="fill:rgb(252,125,52);"/>
            </g>
        </g>
    </g>
</svg>
